<?xml version="1.0" standalone="no"?><!DOCTYPE svg PUBLIC "-//W3C//DTD SVG 1.1//EN" "http://www.w3.org/Graphics/SVG/1.1/DTD/svg11.dtd"><svg t="1571123982886" class="icon" viewBox="0 0 1024 1024" version="1.1" xmlns="http://www.w3.org/2000/svg" p-id="11807" xmlns:xlink="http://www.w3.org/1999/xlink" width="200" height="200"><defs><style type="text/css"></style></defs><path d="M965.40416 342.76608c-19.50976-52.24704-47.744-100.41472-83.92064-143.16288-18.26688-21.5872-50.57536-24.27392-72.15872-6.0096-21.58464 18.26688-24.2752 50.5728-6.00832 72.15872C861.4336 334.42816 893.44 421.88032 893.44 512c0 210.32576-171.11424 381.44-381.44 381.44-210.32704 0-381.44-171.11424-381.44-381.44 0-210.32704 171.11296-381.44 381.44-381.44 60.48896 0 118.30784 13.72672 171.85152 40.8 25.2288 12.75648 56.03328 2.64704 68.7936-22.58816 12.76032-25.23392 2.64576-56.03456-22.58816-68.7936C662.05312 45.5936 588.68992 28.16 512 28.16c-65.29536 0-128.66432 12.8-188.34688 38.04416-57.62176 24.37248-109.36064 59.2512-153.7792 103.66976-44.41856 44.41856-79.29856 96.15744-103.66976 153.77792C40.96 383.3344 28.16 446.70464 28.16 512c0 65.29536 12.8 128.6656 38.04416 188.34688 24.37248 57.62176 59.2512 109.36064 103.66976 153.7792s96.15744 79.29856 153.7792 103.66976C383.33568 983.04 446.70464 995.84 512 995.84c65.29536 0 128.6656-12.8 188.34816-38.04416 57.62176-24.3712 109.36064-59.2512 153.77792-103.66976 44.41856-44.41856 79.29856-96.15744 103.66976-153.7792C983.04 640.6656 995.84 577.29536 995.84 512 995.84 453.79328 985.6 396.85504 965.40416 342.76608z" p-id="11808" fill="#8a8a8a"></path><path d="M607.61344 465.48224c8.31488-6.70464 4.8192-24.4864-2.92096-31.0272-55.98336-47.4176-111.97952-94.83904-167.96672-142.25408-39.54688 0.48128-79.10016 1.0624-118.6496 1.60128-19.24864 0.25344-10.144 17.2672-0.71424 25.15584 46.27456 38.848 92.55168 77.69856 138.8288 116.54784-24.0512 17.64096-48.1088 35.2768-72.15104 52.91136-12.52992 9.17248-1.8624 34.99648 7.54304 42.68288 92.30976 75.45216 184.608 150.9376 276.91392 226.40768l109.69088 0c-3.17184-13.47328-1.70624-31.03488-12.7168-39.94368-78.32576-63.35104-156.64896-126.70592-234.97472-190.0544C556.20224 506.8288 581.90336 486.1504 607.61344 465.48224z" p-id="11809" fill="#8a8a8a"></path><path d="M728.6528 322.27712c0-44.9408-34.85824-81.38496-77.84576-81.38496-42.99008 0-77.84832 36.44288-77.84832 81.38496 0 44.9408 34.85824 81.38496 77.84832 81.38496C693.79328 403.6608 728.6528 367.21792 728.6528 322.27712z" p-id="11810" fill="#8a8a8a"></path><path d="M263.34336 469.12384c-36.5632 1.17888-73.12896 2.36288-109.69216 3.5392 0.9408 8.54016-0.07808 28.8 6.34368 34.18624 58.8608 49.14048 117.7216 98.28864 176.57856 147.43424 6.68928 5.57312 24.50432 9.7536 32.17664 4.64384 17.1008-11.39456 34.2016-22.80064 51.3024-34.19904 4.14208-2.76352 8.33792-17.54112 4.25216-20.83456-48.34432-39.02592-96.69248-78.05568-145.0368-117.07904C273.95712 480.9152 268.65024 475.01824 263.34336 469.12384z" p-id="11811" fill="#8a8a8a"></path></svg>